<?xml version="1.0" encoding="UTF-8"?>
<svg xmlns="http://www.w3.org/2000/svg" xmlns:xlink="http://www.w3.org/1999/xlink" width="90px" height="90px" viewBox="0 0 90 90" version="1.1">
<defs>
<filter id="alpha" filterUnits="objectBoundingBox" x="0%" y="0%" width="100%" height="100%">
  <feColorMatrix type="matrix" in="SourceGraphic" values="0 0 0 0 1 0 0 0 0 1 0 0 0 0 1 0 0 0 1 0"/>
</filter>
<mask id="mask0">
  <g filter="url(#alpha)">
<rect x="0" y="0" width="90" height="90" style="fill:rgb(0%,0%,0%);fill-opacity:0.0352941;stroke:none;"/>
  </g>
</mask>
<clipPath id="clip1">
  <rect x="0" y="0" width="90" height="90"/>
</clipPath>
<g id="surface5" clip-path="url(#clip1)">
<path style=" stroke:none;fill-rule:evenodd;fill:rgb(0.392157%,0.392157%,0.392157%);fill-opacity:1;" d="M 27.1875 16.355469 C 30.082031 16.609375 32.792969 17.476562 35.3125 18.957031 C 45.84375 25.292969 56.46875 31.472656 67.1875 37.5 C 71.835938 40.621094 73.46875 44.890625 72.082031 50.3125 C 71.617188 51.035156 71.199219 51.800781 70.832031 52.605469 C 70.1875 53.167969 69.667969 53.828125 69.269531 54.582031 C 68.503906 54.96875 67.808594 55.453125 67.1875 56.042969 C 55.878906 62.738281 44.492188 69.335938 33.019531 75.832031 C 31.21875 76.578125 29.34375 77.03125 27.394531 77.1875 C 21.671875 76.636719 18.304688 73.511719 17.292969 67.8125 C 17.152344 53.785156 17.152344 39.757812 17.292969 25.730469 C 18.273438 20.128906 21.574219 17.003906 27.1875 16.355469 Z M 27.1875 16.355469 "/>
</g>
<mask id="mask1">
  <g filter="url(#alpha)">
<rect x="0" y="0" width="90" height="90" style="fill:rgb(0%,0%,0%);fill-opacity:0.172549;stroke:none;"/>
  </g>
</mask>
<clipPath id="clip2">
  <rect x="0" y="0" width="90" height="90"/>
</clipPath>
<g id="surface8" clip-path="url(#clip2)">
<path style=" stroke:none;fill-rule:evenodd;fill:rgb(48.235294%,61.960784%,84.313725%);fill-opacity:1;" d="M 29.269531 19.0625 C 27.953125 18.785156 26.632812 18.785156 25.3125 19.0625 C 25.335938 18.835938 25.476562 18.699219 25.730469 18.644531 C 26.847656 18.378906 27.957031 18.414062 29.0625 18.75 C 29.179688 18.828125 29.246094 18.933594 29.269531 19.0625 Z M 29.269531 19.0625 "/>
</g>
<mask id="mask2">
  <g filter="url(#alpha)">
<rect x="0" y="0" width="90" height="90" style="fill:rgb(0%,0%,0%);fill-opacity:0.0666667;stroke:none;"/>
  </g>
</mask>
<clipPath id="clip3">
  <rect x="0" y="0" width="90" height="90"/>
</clipPath>
<g id="surface11" clip-path="url(#clip3)">
<path style=" stroke:none;fill-rule:evenodd;fill:rgb(6.27451%,6.27451%,6.27451%);fill-opacity:1;" d="M 22.605469 20.730469 C 22.605469 20.867188 22.605469 21.007812 22.605469 21.144531 C 22.085938 21.484375 21.773438 21.96875 21.667969 22.605469 C 21.425781 23.421875 21.320312 24.253906 21.355469 25.105469 C 21.355469 38.785156 21.355469 52.464844 21.355469 66.144531 C 21.203125 65.859375 21.0625 65.546875 20.9375 65.207031 C 20.757812 63.867188 20.757812 62.6875 20.9375 61.667969 C 20.796875 61.179688 20.660156 60.695312 20.519531 60.207031 C 20.589844 60.140625 20.660156 60.070312 20.730469 60 C 20.589844 58.820312 20.453125 57.640625 20.3125 56.457031 C 20.382812 56.25 20.453125 56.042969 20.519531 55.832031 C 20.382812 54.515625 20.242188 53.195312 20.105469 51.875 C 20.078125 49.191406 20.078125 46.621094 20.105469 44.167969 C 19.964844 43.125 19.828125 42.082031 19.6875 41.042969 C 19.757812 40.972656 19.828125 40.902344 19.894531 40.832031 C 19.746094 36.144531 19.605469 31.5625 19.480469 27.082031 C 19.703125 24.746094 20.570312 22.695312 22.082031 20.9375 C 22.222656 20.78125 22.398438 20.710938 22.605469 20.730469 Z M 22.605469 20.730469 "/>
</g>
<mask id="mask3">
  <g filter="url(#alpha)">
<rect x="0" y="0" width="90" height="90" style="fill:rgb(0%,0%,0%);fill-opacity:0.654902;stroke:none;"/>
  </g>
</mask>
<clipPath id="clip4">
  <rect x="0" y="0" width="90" height="90"/>
</clipPath>
<g id="surface14" clip-path="url(#clip4)">
<path style=" stroke:none;fill-rule:evenodd;fill:rgb(60%,35.686275%,73.333333%);fill-opacity:1;" d="M 21.355469 25.105469 C 21.710938 25.339844 21.851562 25.6875 21.769531 26.144531 C 21.5625 34.582031 21.492188 43.054688 21.5625 51.5625 C 21.5625 56.421875 21.5625 61.285156 21.5625 66.144531 C 21.492188 66.144531 21.421875 66.144531 21.355469 66.144531 C 21.355469 52.464844 21.355469 38.785156 21.355469 25.105469 Z M 21.355469 25.105469 "/>
</g>
<mask id="mask4">
  <g filter="url(#alpha)">
<rect x="0" y="0" width="90" height="90" style="fill:rgb(0%,0%,0%);fill-opacity:0.878431;stroke:none;"/>
  </g>
</mask>
<clipPath id="clip5">
  <rect x="0" y="0" width="90" height="90"/>
</clipPath>
<g id="surface17" clip-path="url(#clip5)">
<path style=" stroke:none;fill-rule:evenodd;fill:rgb(49.803922%,38.431373%,77.254902%);fill-opacity:1;" d="M 61.355469 52.605469 C 61.003906 52.917969 60.585938 53.125 60.105469 53.230469 C 59.617188 53.089844 59.132812 52.953125 58.644531 52.8125 C 58.714844 52.8125 58.785156 52.8125 58.855469 52.8125 C 59.691406 52.78125 60.523438 52.710938 61.355469 52.605469 Z M 61.355469 52.605469 "/>
</g>
<mask id="mask5">
  <g filter="url(#alpha)">
<rect x="0" y="0" width="90" height="90" style="fill:rgb(0%,0%,0%);fill-opacity:0.513725;stroke:none;"/>
  </g>
</mask>
<clipPath id="clip6">
  <rect x="0" y="0" width="90" height="90"/>
</clipPath>
<g id="surface20" clip-path="url(#clip6)">
<path style=" stroke:none;fill-rule:evenodd;fill:rgb(38.823529%,25.098039%,46.666667%);fill-opacity:1;" d="M 57.8125 54.6875 C 57.570312 55.050781 57.222656 55.261719 56.769531 55.3125 C 57.011719 54.949219 57.359375 54.738281 57.8125 54.6875 Z M 57.8125 54.6875 "/>
</g>
<mask id="mask6">
  <g filter="url(#alpha)">
<rect x="0" y="0" width="90" height="90" style="fill:rgb(0%,0%,0%);fill-opacity:0.458824;stroke:none;"/>
  </g>
</mask>
<clipPath id="clip7">
  <rect x="0" y="0" width="90" height="90"/>
</clipPath>
<g id="surface23" clip-path="url(#clip7)">
<path style=" stroke:none;fill-rule:evenodd;fill:rgb(34.117647%,23.529412%,40%);fill-opacity:1;" d="M 55.519531 56.144531 C 55.113281 56.351562 54.695312 56.5625 54.269531 56.769531 C 54.339844 56.632812 54.410156 56.492188 54.480469 56.355469 C 54.800781 56.1875 55.148438 56.117188 55.519531 56.144531 Z M 55.519531 56.144531 "/>
</g>
<mask id="mask7">
  <g filter="url(#alpha)">
<rect x="0" y="0" width="90" height="90" style="fill:rgb(0%,0%,0%);fill-opacity:0.478431;stroke:none;"/>
  </g>
</mask>
<clipPath id="clip8">
  <rect x="0" y="0" width="90" height="90"/>
</clipPath>
<g id="surface26" clip-path="url(#clip8)">
<path style=" stroke:none;fill-rule:evenodd;fill:rgb(34.117647%,20.392157%,41.568627%);fill-opacity:1;" d="M 50.9375 58.644531 C 50.695312 59.011719 50.347656 59.21875 49.894531 59.269531 C 49.894531 59.203125 49.894531 59.132812 49.894531 59.0625 C 50.21875 58.867188 50.566406 58.726562 50.9375 58.644531 Z M 50.9375 58.644531 "/>
</g>
<mask id="mask8">
  <g filter="url(#alpha)">
<rect x="0" y="0" width="90" height="90" style="fill:rgb(0%,0%,0%);fill-opacity:0.678431;stroke:none;"/>
  </g>
</mask>
<clipPath id="clip9">
  <rect x="0" y="0" width="90" height="90"/>
</clipPath>
<g id="surface29" clip-path="url(#clip9)">
<path style=" stroke:none;fill-rule:evenodd;fill:rgb(49.019608%,25.882353%,59.607843%);fill-opacity:1;" d="M 48.4375 60.105469 C 48.011719 60.457031 47.527344 60.734375 46.980469 60.9375 C 47.300781 60.429688 47.789062 60.152344 48.4375 60.105469 Z M 48.4375 60.105469 "/>
</g>
<mask id="mask9">
  <g filter="url(#alpha)">
<rect x="0" y="0" width="90" height="90" style="fill:rgb(0%,0%,0%);fill-opacity:0.52549;stroke:none;"/>
  </g>
</mask>
<clipPath id="clip10">
  <rect x="0" y="0" width="90" height="90"/>
</clipPath>
<g id="surface32" clip-path="url(#clip10)">
<path style=" stroke:none;fill-rule:evenodd;fill:rgb(41.568627%,24.313725%,49.019608%);fill-opacity:1;" d="M 46.355469 61.355469 C 46.191406 61.6875 45.914062 61.828125 45.519531 61.769531 C 45.730469 61.527344 46.011719 61.386719 46.355469 61.355469 Z M 46.355469 61.355469 "/>
</g>
<mask id="mask10">
  <g filter="url(#alpha)">
<rect x="0" y="0" width="90" height="90" style="fill:rgb(0%,0%,0%);fill-opacity:0.45098;stroke:none;"/>
  </g>
</mask>
<clipPath id="clip11">
  <rect x="0" y="0" width="90" height="90"/>
</clipPath>
<g id="surface35" clip-path="url(#clip11)">
<path style=" stroke:none;fill-rule:evenodd;fill:rgb(45.098039%,26.666667%,49.803922%);fill-opacity:1;" d="M 38.644531 65.730469 C 38.546875 66.023438 38.339844 66.160156 38.019531 66.144531 C 38.121094 65.851562 38.328125 65.714844 38.644531 65.730469 Z M 38.644531 65.730469 "/>
</g>
<mask id="mask11">
  <g filter="url(#alpha)">
<rect x="0" y="0" width="90" height="90" style="fill:rgb(0%,0%,0%);fill-opacity:0.47451;stroke:none;"/>
  </g>
</mask>
<clipPath id="clip12">
  <rect x="0" y="0" width="90" height="90"/>
</clipPath>
<g id="surface38" clip-path="url(#clip12)">
<path style=" stroke:none;fill-rule:evenodd;fill:rgb(40%,25.490196%,43.529412%);fill-opacity:1;" d="M 36.769531 66.769531 C 36.503906 67.121094 36.15625 67.398438 35.730469 67.605469 C 35.859375 67.082031 36.207031 66.804688 36.769531 66.769531 Z M 36.769531 66.769531 "/>
</g>
<mask id="mask12">
  <g filter="url(#alpha)">
<rect x="0" y="0" width="90" height="90" style="fill:rgb(0%,0%,0%);fill-opacity:0.352941;stroke:none;"/>
  </g>
</mask>
<clipPath id="clip13">
  <rect x="0" y="0" width="90" height="90"/>
</clipPath>
<g id="surface41" clip-path="url(#clip13)">
<path style=" stroke:none;fill-rule:evenodd;fill:rgb(46.666667%,28.235294%,50.196078%);fill-opacity:1;" d="M 21.5625 66.5625 C 21.925781 66.957031 22.132812 67.441406 22.1875 68.019531 C 21.824219 67.625 21.617188 67.140625 21.5625 66.5625 Z M 21.5625 66.5625 "/>
</g>
<mask id="mask13">
  <g filter="url(#alpha)">
<rect x="0" y="0" width="90" height="90" style="fill:rgb(0%,0%,0%);fill-opacity:0.580392;stroke:none;"/>
  </g>
</mask>
<clipPath id="clip14">
  <rect x="0" y="0" width="90" height="90"/>
</clipPath>
<g id="surface44" clip-path="url(#clip14)">
<path style=" stroke:none;fill-rule:evenodd;fill:rgb(54.901961%,30.196078%,60.392157%);fill-opacity:1;" d="M 34.269531 68.230469 C 33.933594 68.609375 33.515625 68.886719 33.019531 69.0625 C 33.277344 68.585938 33.695312 68.304688 34.269531 68.230469 Z M 34.269531 68.230469 "/>
</g>
<mask id="mask14">
  <g filter="url(#alpha)">
<rect x="0" y="0" width="90" height="90" style="fill:rgb(0%,0%,0%);fill-opacity:0.764706;stroke:none;"/>
  </g>
</mask>
<clipPath id="clip15">
  <rect x="0" y="0" width="90" height="90"/>
</clipPath>
<g id="surface47" clip-path="url(#clip15)">
<path style=" stroke:none;fill-rule:evenodd;fill:rgb(65.882353%,34.509804%,71.372549%);fill-opacity:1;" d="M 23.4375 69.6875 C 23.90625 69.808594 24.253906 70.085938 24.480469 70.519531 C 24.011719 70.398438 23.664062 70.121094 23.4375 69.6875 Z M 23.4375 69.6875 "/>
</g>
<mask id="mask15">
  <g filter="url(#alpha)">
<rect x="0" y="0" width="90" height="90" style="fill:rgb(0%,0%,0%);fill-opacity:0.639216;stroke:none;"/>
  </g>
</mask>
<clipPath id="clip16">
  <rect x="0" y="0" width="90" height="90"/>
</clipPath>
<g id="surface50" clip-path="url(#clip16)">
<path style=" stroke:none;fill-rule:evenodd;fill:rgb(50.196078%,30.588235%,53.333333%);fill-opacity:1;" d="M 29.0625 70.730469 C 29.039062 70.859375 28.96875 70.960938 28.855469 71.042969 C 27.703125 71.210938 26.59375 71.175781 25.519531 70.9375 C 26.714844 70.988281 27.894531 70.917969 29.0625 70.730469 Z M 29.0625 70.730469 "/>
</g>
</defs>
<g id="surface1">
<use xlink:href="#surface5" mask="url(#mask0)"/>
<use xlink:href="#surface8" mask="url(#mask1)"/>
<path style=" stroke:none;fill-rule:evenodd;fill:rgb(18.823529%,57.254902%,99.215686%);fill-opacity:1;" d="M 29.269531 19.0625 C 30.058594 19.023438 30.753906 19.234375 31.355469 19.6875 C 31.59375 20.089844 31.9375 20.402344 32.394531 20.625 C 31.214844 20.695312 30.035156 20.765625 28.855469 20.832031 C 27.980469 21.183594 27.355469 21.773438 26.980469 22.605469 C 26.835938 22.324219 26.628906 22.082031 26.355469 21.875 C 25.722656 21.855469 25.097656 21.957031 24.480469 22.1875 C 23.796875 22.226562 23.242188 21.984375 22.8125 21.457031 C 23.191406 20.769531 23.609375 20.109375 24.0625 19.480469 C 24.394531 19.152344 24.8125 19.011719 25.3125 19.0625 C 26.632812 18.785156 27.953125 18.785156 29.269531 19.0625 Z M 29.269531 19.0625 "/>
<path style=" stroke:none;fill-rule:evenodd;fill:rgb(17.647059%,76.078431%,98.823529%);fill-opacity:1;" d="M 31.355469 19.6875 C 34.238281 21.300781 37.085938 22.96875 39.894531 24.6875 C 39.9375 25.007812 40.078125 25.285156 40.3125 25.519531 C 40.242188 25.589844 40.171875 25.660156 40.105469 25.730469 C 39.640625 25.503906 39.152344 25.367188 38.644531 25.3125 C 38.613281 24.402344 38.332031 24.300781 37.8125 25 C 37.882812 25.070312 37.953125 25.140625 38.019531 25.207031 C 36.703125 25.277344 35.382812 25.347656 34.0625 25.417969 C 34.269531 25.484375 34.480469 25.554688 34.6875 25.625 C 34.148438 25.671875 33.625 25.777344 33.125 25.9375 C 32.605469 25.664062 32.085938 25.804688 31.5625 26.355469 C 30.804688 25.839844 30.074219 25.839844 29.375 26.355469 C 29.09375 25.945312 28.78125 25.875 28.4375 26.144531 C 27.542969 25.664062 27.058594 24.898438 26.980469 23.855469 C 26.980469 23.4375 26.980469 23.019531 26.980469 22.605469 C 27.355469 21.773438 27.980469 21.183594 28.855469 20.832031 C 30.035156 20.765625 31.214844 20.695312 32.394531 20.625 C 31.9375 20.402344 31.59375 20.089844 31.355469 19.6875 Z M 31.355469 19.6875 "/>
<use xlink:href="#surface11" mask="url(#mask2)"/>
<path style=" stroke:none;fill-rule:evenodd;fill:rgb(45.882353%,68.627451%,91.764706%);fill-opacity:1;" d="M 22.605469 21.144531 C 22.355469 21.753906 22.144531 22.378906 21.980469 23.019531 C 21.746094 23.394531 21.710938 23.808594 21.875 24.269531 C 22.023438 24.578125 22.265625 24.714844 22.605469 24.6875 C 22.632812 25.046875 22.699219 25.390625 22.8125 25.730469 C 22.398438 25.65625 22.121094 25.796875 21.980469 26.144531 C 21.910156 26.144531 21.839844 26.144531 21.769531 26.144531 C 21.851562 25.6875 21.710938 25.339844 21.355469 25.105469 C 21.320312 24.253906 21.425781 23.421875 21.667969 22.605469 C 21.773438 21.96875 22.085938 21.484375 22.605469 21.144531 Z M 22.605469 21.144531 "/>
<path style=" stroke:none;fill-rule:evenodd;fill:rgb(19.215686%,60.784314%,99.215686%);fill-opacity:1;" d="M 24.0625 19.480469 C 23.609375 20.109375 23.191406 20.769531 22.8125 21.457031 C 23.242188 21.984375 23.796875 22.226562 24.480469 22.1875 C 25.097656 21.957031 25.722656 21.855469 26.355469 21.875 C 26.628906 22.082031 26.835938 22.324219 26.980469 22.605469 C 26.980469 23.019531 26.980469 23.4375 26.980469 23.855469 C 26.757812 24.082031 26.585938 24.359375 26.457031 24.6875 C 25.902344 24.132812 25.449219 24.238281 25.105469 25 C 25.1875 25.195312 25.328125 25.335938 25.519531 25.417969 C 25.03125 25.835938 24.617188 26.324219 24.269531 26.875 C 23.929688 26.976562 23.582031 27.011719 23.230469 26.980469 C 23.125 25.789062 22.949219 24.609375 22.707031 23.4375 C 22.558594 23.128906 22.316406 22.992188 21.980469 23.019531 C 22.144531 22.378906 22.355469 21.753906 22.605469 21.144531 C 22.605469 21.007812 22.605469 20.867188 22.605469 20.730469 C 22.960938 20.164062 23.449219 19.746094 24.0625 19.480469 Z M 24.0625 19.480469 "/>
<path style=" stroke:none;fill-rule:evenodd;fill:rgb(13.333333%,79.215686%,99.607843%);fill-opacity:1;" d="M 39.894531 24.6875 C 41.03125 25.082031 42.070312 25.636719 43.019531 26.355469 C 43.019531 26.5625 43.019531 26.769531 43.019531 26.980469 C 43.238281 26.949219 43.449219 26.984375 43.644531 27.082031 C 44.992188 27.859375 46.308594 28.695312 47.605469 29.582031 C 47.503906 29.792969 47.46875 30.035156 47.5 30.3125 C 47.125 30.046875 46.742188 30.046875 46.355469 30.3125 C 45.914062 30.074219 45.464844 29.867188 45 29.6875 C 43.753906 30.074219 42.46875 30.214844 41.144531 30.105469 C 41.203125 30.511719 41.0625 30.824219 40.730469 31.042969 C 40.84375 31.121094 40.914062 31.226562 40.9375 31.355469 C 40.503906 31.027344 40.085938 30.644531 39.6875 30.207031 C 38.921875 29.976562 38.230469 29.632812 37.605469 29.167969 C 37.058594 28.996094 36.503906 28.890625 35.9375 28.855469 C 33.589844 28.382812 31.300781 27.726562 29.0625 26.875 C 28.808594 26.660156 28.601562 26.414062 28.4375 26.144531 C 28.78125 25.875 29.09375 25.945312 29.375 26.355469 C 30.074219 25.839844 30.804688 25.839844 31.5625 26.355469 C 32.085938 25.804688 32.605469 25.664062 33.125 25.9375 C 33.625 25.777344 34.148438 25.671875 34.6875 25.625 C 34.480469 25.554688 34.269531 25.484375 34.0625 25.417969 C 35.382812 25.347656 36.703125 25.277344 38.019531 25.207031 C 37.953125 25.140625 37.882812 25.070312 37.8125 25 C 38.332031 24.300781 38.613281 24.402344 38.644531 25.3125 C 39.152344 25.367188 39.640625 25.503906 40.105469 25.730469 C 40.171875 25.660156 40.242188 25.589844 40.3125 25.519531 C 40.078125 25.285156 39.9375 25.007812 39.894531 24.6875 Z M 39.894531 24.6875 "/>
<path style=" stroke:none;fill-rule:evenodd;fill:rgb(54.901961%,78.823529%,98.823529%);fill-opacity:1;" d="M 22.8125 25.730469 C 23.058594 27.023438 23.613281 28.167969 24.480469 29.167969 C 24.210938 29.269531 23.933594 29.304688 23.644531 29.269531 C 22.710938 28.441406 22.152344 27.398438 21.980469 26.144531 C 22.121094 25.796875 22.398438 25.65625 22.8125 25.730469 Z M 22.8125 25.730469 "/>
<path style=" stroke:none;fill-rule:evenodd;fill:rgb(17.254902%,64.313725%,99.215686%);fill-opacity:1;" d="M 21.980469 23.019531 C 22.316406 22.992188 22.558594 23.128906 22.707031 23.4375 C 22.949219 24.609375 23.125 25.789062 23.230469 26.980469 C 23.582031 27.011719 23.929688 26.976562 24.269531 26.875 C 24.617188 26.324219 25.03125 25.835938 25.519531 25.417969 C 25.328125 25.335938 25.1875 25.195312 25.105469 25 C 25.449219 24.238281 25.902344 24.132812 26.457031 24.6875 C 26.585938 24.359375 26.757812 24.082031 26.980469 23.855469 C 27.058594 24.898438 27.542969 25.664062 28.4375 26.144531 C 28.601562 26.414062 28.808594 26.660156 29.0625 26.875 C 31.300781 27.726562 33.589844 28.382812 35.9375 28.855469 C 36.308594 29.082031 36.722656 29.257812 37.1875 29.375 C 37.078125 29.519531 36.9375 29.625 36.769531 29.6875 C 35.75 29.824219 34.535156 29.824219 33.125 29.6875 C 32.304688 29.695312 31.542969 29.835938 30.832031 30.105469 C 30.378906 29.484375 30.136719 29.554688 30.105469 30.3125 C 30.675781 30.246094 31.230469 30.316406 31.769531 30.519531 C 32.003906 30.679688 32.140625 30.886719 32.1875 31.144531 C 32.117188 31.144531 32.046875 31.144531 31.980469 31.144531 C 29.785156 30.261719 27.492188 29.808594 25.105469 29.792969 C 24.582031 29.644531 24.097656 29.472656 23.644531 29.269531 C 23.933594 29.304688 24.210938 29.269531 24.480469 29.167969 C 23.613281 28.167969 23.058594 27.023438 22.8125 25.730469 C 22.699219 25.390625 22.632812 25.046875 22.605469 24.6875 C 22.265625 24.714844 22.023438 24.578125 21.875 24.269531 C 21.710938 23.808594 21.746094 23.394531 21.980469 23.019531 Z M 21.980469 23.019531 "/>
<path style=" stroke:none;fill-rule:evenodd;fill:rgb(16.078431%,81.176471%,98.431373%);fill-opacity:1;" d="M 43.019531 26.355469 C 46.828125 28.5 50.578125 30.722656 54.269531 33.019531 C 53.9375 33.199219 53.589844 33.234375 53.230469 33.125 C 53.109375 33.375 52.972656 33.621094 52.8125 33.855469 C 51.59375 33.511719 50.414062 33.582031 49.269531 34.0625 C 47.816406 33.628906 46.324219 33.351562 44.792969 33.230469 C 44.433594 33.527344 44.15625 33.457031 43.957031 33.019531 C 43.890625 33.160156 43.820312 33.296875 43.75 33.4375 C 42.898438 33.402344 41.960938 33.402344 40.9375 33.4375 C 40.9375 32.742188 40.9375 32.046875 40.9375 31.355469 C 40.914062 31.226562 40.84375 31.121094 40.730469 31.042969 C 41.0625 30.824219 41.203125 30.511719 41.144531 30.105469 C 42.46875 30.214844 43.753906 30.074219 45 29.6875 C 45.464844 29.867188 45.914062 30.074219 46.355469 30.3125 C 46.742188 30.046875 47.125 30.046875 47.5 30.3125 C 47.46875 30.035156 47.503906 29.792969 47.605469 29.582031 C 46.308594 28.695312 44.992188 27.859375 43.644531 27.082031 C 43.449219 26.984375 43.238281 26.949219 43.019531 26.980469 C 43.019531 26.769531 43.019531 26.5625 43.019531 26.355469 Z M 43.019531 26.355469 "/>
<path style=" stroke:none;fill-rule:evenodd;fill:rgb(12.156863%,67.058824%,99.215686%);fill-opacity:1;" d="M 35.9375 28.855469 C 36.503906 28.890625 37.058594 28.996094 37.605469 29.167969 C 38.230469 29.632812 38.921875 29.976562 39.6875 30.207031 C 40.085938 30.644531 40.503906 31.027344 40.9375 31.355469 C 40.9375 32.046875 40.9375 32.742188 40.9375 33.4375 C 40.601562 33.601562 40.464844 33.878906 40.519531 34.269531 C 40.347656 34.507812 40.207031 34.785156 40.105469 35.105469 C 39.652344 35.171875 39.203125 35.242188 38.75 35.3125 C 38.074219 35.351562 37.449219 35.214844 36.875 34.894531 C 36.835938 35.628906 36.734375 36.324219 36.5625 36.980469 C 36.683594 33.839844 35.226562 31.894531 32.1875 31.144531 C 32.140625 30.886719 32.003906 30.679688 31.769531 30.519531 C 31.230469 30.316406 30.675781 30.246094 30.105469 30.3125 C 30.136719 29.554688 30.378906 29.484375 30.832031 30.105469 C 31.542969 29.835938 32.304688 29.695312 33.125 29.6875 C 34.535156 29.824219 35.75 29.824219 36.769531 29.6875 C 36.9375 29.625 37.078125 29.519531 37.1875 29.375 C 36.722656 29.257812 36.308594 29.082031 35.9375 28.855469 Z M 35.9375 28.855469 "/>
<path style=" stroke:none;fill-rule:evenodd;fill:rgb(54.509804%,23.137255%,81.568627%);fill-opacity:1;" d="M 21.769531 26.144531 C 21.839844 26.144531 21.910156 26.144531 21.980469 26.144531 C 22.152344 27.398438 22.710938 28.441406 23.644531 29.269531 C 24.097656 29.472656 24.582031 29.644531 25.105469 29.792969 C 27.492188 29.808594 29.785156 30.261719 31.980469 31.144531 C 32.578125 31.773438 33.269531 32.296875 34.0625 32.707031 C 35.589844 34.058594 36.285156 35.757812 36.144531 37.8125 C 36.105469 38.464844 35.964844 39.089844 35.730469 39.6875 C 35.25 40.582031 34.695312 41.414062 34.0625 42.1875 C 33.761719 41.839844 33.34375 41.667969 32.8125 41.667969 C 33.089844 41.597656 33.367188 41.527344 33.644531 41.457031 C 32.925781 41.332031 32.230469 41.125 31.5625 40.832031 C 31.632812 40.765625 31.703125 40.695312 31.769531 40.625 C 31.066406 40.574219 30.371094 40.46875 29.6875 40.3125 C 29.546875 40.613281 29.410156 40.890625 29.269531 41.144531 C 29.625 39.519531 29.519531 37.921875 28.957031 36.355469 C 28.183594 35.566406 27.3125 34.90625 26.355469 34.375 C 24.828125 34.269531 23.300781 34.234375 21.769531 34.269531 C 21.769531 37.394531 21.769531 40.519531 21.769531 43.644531 C 21.769531 45.9375 21.769531 48.230469 21.769531 50.519531 C 21.769531 50.867188 21.769531 51.214844 21.769531 51.5625 C 21.703125 51.5625 21.632812 51.5625 21.5625 51.5625 C 21.492188 43.054688 21.5625 34.582031 21.769531 26.144531 Z M 21.769531 26.144531 "/>
<path style=" stroke:none;fill-rule:evenodd;fill:rgb(40%,20%,65.490196%);fill-opacity:1;" d="M 31.980469 31.144531 C 32.046875 31.144531 32.117188 31.144531 32.1875 31.144531 C 35.226562 31.894531 36.683594 33.839844 36.5625 36.980469 C 36.421875 37.257812 36.285156 37.535156 36.144531 37.8125 C 36.285156 35.757812 35.589844 34.058594 34.0625 32.707031 C 33.269531 32.296875 32.578125 31.773438 31.980469 31.144531 Z M 31.980469 31.144531 "/>
<path style=" stroke:none;fill-rule:evenodd;fill:rgb(10.980392%,83.921569%,99.215686%);fill-opacity:1;" d="M 54.269531 33.019531 C 54.800781 33.199219 55.320312 33.40625 55.832031 33.644531 C 56.898438 34.367188 57.976562 35.0625 59.0625 35.730469 C 59.0625 36.007812 59.0625 36.285156 59.0625 36.5625 C 58.027344 36.640625 58.097656 36.742188 59.269531 36.875 C 59.007812 36.9375 58.765625 37.042969 58.542969 37.1875 C 58.101562 36.960938 57.582031 36.960938 56.980469 37.1875 C 56.980469 36.980469 56.980469 36.769531 56.980469 36.5625 C 56.632812 36.5625 56.285156 36.5625 55.9375 36.5625 C 55.9375 36.769531 55.9375 36.980469 55.9375 37.1875 C 55.652344 37.21875 55.375 37.183594 55.105469 37.082031 C 54.828125 36.945312 54.828125 36.804688 55.105469 36.667969 C 54.757812 36.527344 54.410156 36.527344 54.0625 36.667969 C 54.300781 36.820312 54.300781 36.996094 54.0625 37.1875 C 53.167969 37.429688 52.265625 37.464844 51.355469 37.292969 C 51.179688 37.082031 51.109375 36.839844 51.144531 36.5625 C 50.925781 36.53125 50.71875 36.566406 50.519531 36.667969 C 50.71875 36.90625 50.652344 37.113281 50.3125 37.292969 C 48.855469 37.394531 48.785156 37.535156 50.105469 37.707031 C 49.554688 37.8125 48.996094 37.847656 48.4375 37.8125 C 48.4375 38.019531 48.4375 38.230469 48.4375 38.4375 C 47.523438 38.292969 46.617188 38.085938 45.730469 37.8125 C 44.550781 37.996094 43.371094 38.03125 42.1875 37.917969 C 41.683594 37.855469 41.300781 37.613281 41.042969 37.1875 C 40.941406 37.457031 40.90625 37.734375 40.9375 38.019531 C 40.773438 37.789062 40.667969 37.511719 40.625 37.1875 C 40.519531 36.21875 40.484375 35.246094 40.519531 34.269531 C 40.464844 33.878906 40.601562 33.601562 40.9375 33.4375 C 41.960938 33.402344 42.898438 33.402344 43.75 33.4375 C 43.820312 33.296875 43.890625 33.160156 43.957031 33.019531 C 44.15625 33.457031 44.433594 33.527344 44.792969 33.230469 C 46.324219 33.351562 47.816406 33.628906 49.269531 34.0625 C 50.414062 33.582031 51.59375 33.511719 52.8125 33.855469 C 52.972656 33.621094 53.109375 33.375 53.230469 33.125 C 53.589844 33.234375 53.9375 33.199219 54.269531 33.019531 Z M 54.269531 33.019531 "/>
<path style=" stroke:none;fill-rule:evenodd;fill:rgb(8.627451%,86.27451%,99.607843%);fill-opacity:1;" d="M 59.0625 35.730469 C 61.605469 36.933594 64.035156 38.355469 66.355469 40 C 66.960938 40.707031 67.515625 41.4375 68.019531 42.1875 C 67.511719 41.855469 67.027344 41.472656 66.5625 41.042969 C 65.414062 40.871094 64.300781 40.90625 63.230469 41.144531 C 59.820312 39.214844 56.207031 38.765625 52.394531 39.792969 C 49.859375 41.171875 47.152344 41.726562 44.269531 41.457031 C 42.6875 40.742188 41.574219 39.597656 40.9375 38.019531 C 40.90625 37.734375 40.941406 37.457031 41.042969 37.1875 C 41.300781 37.613281 41.683594 37.855469 42.1875 37.917969 C 43.371094 38.03125 44.550781 37.996094 45.730469 37.8125 C 46.617188 38.085938 47.523438 38.292969 48.4375 38.4375 C 48.4375 38.230469 48.4375 38.019531 48.4375 37.8125 C 48.996094 37.847656 49.554688 37.8125 50.105469 37.707031 C 48.785156 37.535156 48.855469 37.394531 50.3125 37.292969 C 50.652344 37.113281 50.71875 36.90625 50.519531 36.667969 C 50.71875 36.566406 50.925781 36.53125 51.144531 36.5625 C 51.109375 36.839844 51.179688 37.082031 51.355469 37.292969 C 52.265625 37.464844 53.167969 37.429688 54.0625 37.1875 C 54.300781 36.996094 54.300781 36.820312 54.0625 36.667969 C 54.410156 36.527344 54.757812 36.527344 55.105469 36.667969 C 54.828125 36.804688 54.828125 36.945312 55.105469 37.082031 C 55.375 37.183594 55.652344 37.21875 55.9375 37.1875 C 55.9375 36.980469 55.9375 36.769531 55.9375 36.5625 C 56.285156 36.5625 56.632812 36.5625 56.980469 36.5625 C 56.980469 36.769531 56.980469 36.980469 56.980469 37.1875 C 57.582031 36.960938 58.101562 36.960938 58.542969 37.1875 C 58.765625 37.042969 59.007812 36.9375 59.269531 36.875 C 58.097656 36.742188 58.027344 36.640625 59.0625 36.5625 C 59.0625 36.285156 59.0625 36.007812 59.0625 35.730469 Z M 59.0625 35.730469 "/>
<path style=" stroke:none;fill-rule:evenodd;fill:rgb(10.196078%,73.333333%,99.215686%);fill-opacity:1;" d="M 40.519531 34.269531 C 40.484375 35.246094 40.519531 36.21875 40.625 37.1875 C 40.667969 37.511719 40.773438 37.789062 40.9375 38.019531 C 41.019531 38.71875 40.742188 39.207031 40.105469 39.480469 C 38.820312 39.546875 37.601562 39.546875 36.457031 39.480469 C 36.109375 39.769531 35.863281 40.113281 35.730469 40.519531 C 35.730469 40.242188 35.730469 39.964844 35.730469 39.6875 C 35.964844 39.089844 36.105469 38.464844 36.144531 37.8125 C 36.285156 37.535156 36.421875 37.257812 36.5625 36.980469 C 36.734375 36.324219 36.835938 35.628906 36.875 34.894531 C 37.449219 35.214844 38.074219 35.351562 38.75 35.3125 C 39.203125 35.242188 39.652344 35.171875 40.105469 35.105469 C 40.207031 34.785156 40.347656 34.507812 40.519531 34.269531 Z M 40.519531 34.269531 "/>
<use xlink:href="#surface14" mask="url(#mask3)"/>
<path style=" stroke:none;fill-rule:evenodd;fill:rgb(57.254902%,18.431373%,80.392157%);fill-opacity:1;" d="M 29.269531 41.144531 C 28.863281 42.460938 28.519531 43.78125 28.230469 45.105469 C 27.890625 45.664062 27.683594 46.289062 27.605469 46.980469 C 27.328125 47.28125 27.15625 47.210938 27.082031 46.769531 C 26.910156 46.980469 26.734375 47.1875 26.5625 47.394531 C 26.203125 46.828125 25.71875 46.414062 25.105469 46.144531 C 24.90625 45.824219 24.835938 45.476562 24.894531 45.105469 C 24.015625 44.933594 23.148438 44.722656 22.292969 44.480469 C 22.222656 44.6875 22.152344 44.894531 22.082031 45.105469 C 22.042969 44.574219 21.941406 44.089844 21.769531 43.644531 C 21.769531 40.519531 21.769531 37.394531 21.769531 34.269531 C 23.300781 34.234375 24.828125 34.269531 26.355469 34.375 C 27.3125 34.90625 28.183594 35.566406 28.957031 36.355469 C 29.519531 37.921875 29.625 39.519531 29.269531 41.144531 Z M 29.269531 41.144531 "/>
<path style=" stroke:none;fill-rule:evenodd;fill:rgb(7.058824%,78.431373%,99.607843%);fill-opacity:1;" d="M 40.9375 38.019531 C 41.574219 39.597656 42.6875 40.742188 44.269531 41.457031 C 47.152344 41.726562 49.859375 41.171875 52.394531 39.792969 C 56.207031 38.765625 59.820312 39.214844 63.230469 41.144531 C 64.011719 41.675781 64.707031 42.300781 65.3125 43.019531 C 65.320312 43.246094 65.390625 43.453125 65.519531 43.644531 C 65.382812 43.785156 65.242188 43.921875 65.105469 44.0625 C 64.316406 44.15625 63.585938 44.363281 62.917969 44.6875 C 62.8125 44.582031 62.707031 44.480469 62.605469 44.375 C 60.054688 44.386719 57.519531 44.351562 55 44.269531 C 54.785156 44.425781 54.679688 44.632812 54.6875 44.894531 C 54.410156 44.6875 54.132812 44.480469 53.855469 44.269531 C 53.535156 43.929688 53.121094 43.757812 52.605469 43.75 C 51.703125 43.644531 50.800781 43.609375 49.894531 43.644531 C 48.519531 43.6875 47.269531 44.105469 46.144531 44.894531 C 46.128906 44.6875 46.199219 44.515625 46.355469 44.375 C 44.75 44.328125 43.152344 44.222656 41.5625 44.0625 C 40.839844 44.1875 40.179688 44.257812 39.582031 44.269531 C 39.167969 43.875 39.273438 43.628906 39.894531 43.542969 C 39.496094 42.894531 39.046875 42.789062 38.542969 43.230469 C 38.457031 43.132812 38.351562 43.0625 38.230469 43.019531 C 37.976562 43.183594 37.976562 43.355469 38.230469 43.542969 C 37.542969 43.347656 37.019531 43.589844 36.667969 44.269531 C 36.332031 44.347656 36.019531 44.207031 35.730469 43.855469 C 35.511719 44.753906 35.511719 45.65625 35.730469 46.5625 C 35.40625 45.828125 35.269531 45.027344 35.3125 44.167969 C 35.34375 43.292969 35.414062 42.425781 35.519531 41.5625 C 35.460938 41.164062 35.53125 40.816406 35.730469 40.519531 C 35.863281 40.113281 36.109375 39.769531 36.457031 39.480469 C 37.601562 39.546875 38.820312 39.546875 40.105469 39.480469 C 40.742188 39.207031 41.019531 38.71875 40.9375 38.019531 Z M 40.9375 38.019531 "/>
<path style=" stroke:none;fill-rule:evenodd;fill:rgb(18.039216%,63.529412%,98.431373%);fill-opacity:1;" d="M 35.730469 39.6875 C 35.730469 39.964844 35.730469 40.242188 35.730469 40.519531 C 35.53125 40.816406 35.460938 41.164062 35.519531 41.5625 C 35.359375 41.722656 35.257812 41.929688 35.207031 42.1875 C 35.105469 43.296875 35.070312 44.40625 35.105469 45.519531 C 34.828125 45.519531 34.546875 45.519531 34.269531 45.519531 C 34.394531 44.972656 34.464844 44.417969 34.480469 43.855469 C 33.980469 44.019531 33.566406 44.296875 33.230469 44.6875 C 33.625 43.894531 33.902344 43.0625 34.0625 42.1875 C 34.695312 41.414062 35.25 40.582031 35.730469 39.6875 Z M 35.730469 39.6875 "/>
<path style=" stroke:none;fill-rule:evenodd;fill:rgb(61.568627%,26.666667%,84.705882%);fill-opacity:1;" d="M 34.0625 42.1875 C 33.902344 43.0625 33.625 43.894531 33.230469 44.6875 C 33.078125 44.9375 33.007812 45.21875 33.019531 45.519531 C 32.570312 45.960938 32.363281 46.515625 32.394531 47.1875 C 32.328125 47.1875 32.257812 47.1875 32.1875 47.1875 C 31.839844 46.773438 31.597656 46.285156 31.457031 45.730469 C 31.390625 45.796875 31.320312 45.867188 31.25 45.9375 C 30.398438 45.472656 29.496094 45.125 28.542969 44.894531 C 28.460938 45.011719 28.359375 45.082031 28.230469 45.105469 C 28.519531 43.78125 28.863281 42.460938 29.269531 41.144531 C 29.410156 40.890625 29.546875 40.613281 29.6875 40.3125 C 30.371094 40.46875 31.066406 40.574219 31.769531 40.625 C 31.703125 40.695312 31.632812 40.765625 31.5625 40.832031 C 32.230469 41.125 32.925781 41.332031 33.644531 41.457031 C 33.367188 41.527344 33.089844 41.597656 32.8125 41.667969 C 33.34375 41.667969 33.761719 41.839844 34.0625 42.1875 Z M 34.0625 42.1875 "/>
<path style=" stroke:none;fill-rule:evenodd;fill:rgb(6.666667%,81.960784%,99.607843%);fill-opacity:1;" d="M 46.144531 44.894531 C 44.886719 45.664062 43.636719 46.425781 42.394531 47.1875 C 40.511719 48.042969 38.570312 48.214844 36.5625 47.707031 C 36.152344 47.394531 35.875 47.015625 35.730469 46.5625 C 35.511719 45.65625 35.511719 44.753906 35.730469 43.855469 C 36.019531 44.207031 36.332031 44.347656 36.667969 44.269531 C 37.019531 43.589844 37.542969 43.347656 38.230469 43.542969 C 37.976562 43.355469 37.976562 43.183594 38.230469 43.019531 C 38.351562 43.0625 38.457031 43.132812 38.542969 43.230469 C 39.046875 42.789062 39.496094 42.894531 39.894531 43.542969 C 39.273438 43.628906 39.167969 43.875 39.582031 44.269531 C 40.179688 44.257812 40.839844 44.1875 41.5625 44.0625 C 43.152344 44.222656 44.75 44.328125 46.355469 44.375 C 46.199219 44.515625 46.128906 44.6875 46.144531 44.894531 Z M 46.144531 44.894531 "/>
<path style=" stroke:none;fill-rule:evenodd;fill:rgb(5.882353%,82.745098%,99.607843%);fill-opacity:1;" d="M 65.3125 43.019531 C 66.304688 43.847656 66.789062 44.925781 66.769531 46.25 C 66.65625 47.214844 66.445312 48.152344 66.144531 49.0625 C 65.511719 49.035156 64.886719 49.105469 64.269531 49.269531 C 63.066406 48.773438 61.851562 48.773438 60.625 49.269531 C 59.417969 49.214844 59.453125 49.109375 60.730469 48.957031 C 60.492188 48.746094 60.5625 48.609375 60.9375 48.542969 C 59.644531 48.378906 58.359375 48.414062 57.082031 48.644531 C 56.921875 48.617188 56.785156 48.546875 56.667969 48.4375 C 56.484375 47.535156 56.3125 46.632812 56.144531 45.730469 C 56.007812 45.796875 55.867188 45.867188 55.730469 45.9375 C 55.523438 46.476562 55.457031 47.03125 55.519531 47.605469 C 55.425781 46.664062 55.148438 45.761719 54.6875 44.894531 C 54.679688 44.632812 54.785156 44.425781 55 44.269531 C 57.519531 44.351562 60.054688 44.386719 62.605469 44.375 C 62.707031 44.480469 62.8125 44.582031 62.917969 44.6875 C 63.585938 44.363281 64.316406 44.15625 65.105469 44.0625 C 65.242188 43.921875 65.382812 43.785156 65.519531 43.644531 C 65.390625 43.453125 65.320312 43.246094 65.3125 43.019531 Z M 65.3125 43.019531 "/>
<path style=" stroke:none;fill-rule:evenodd;fill:rgb(56.078431%,22.745098%,82.352941%);fill-opacity:1;" d="M 53.855469 44.269531 C 54.132812 44.480469 54.410156 44.6875 54.6875 44.894531 C 55.148438 45.761719 55.425781 46.664062 55.519531 47.605469 C 55.507812 48.453125 55.714844 49.214844 56.144531 49.894531 C 56.316406 51.453125 57.148438 52.425781 58.644531 52.8125 C 59.132812 52.953125 59.617188 53.089844 60.105469 53.230469 C 60.132812 53.410156 60.0625 53.550781 59.894531 53.644531 C 59.144531 53.917969 58.449219 54.265625 57.8125 54.6875 C 57.359375 54.738281 57.011719 54.949219 56.769531 55.3125 C 56.292969 55.515625 55.875 55.792969 55.519531 56.144531 C 55.148438 56.117188 54.800781 56.1875 54.480469 56.355469 C 54.566406 55.886719 54.84375 55.574219 55.3125 55.417969 C 54.425781 55.234375 53.628906 54.851562 52.917969 54.269531 C 52.65625 52.972656 52.515625 51.65625 52.5 50.3125 C 52.148438 48.921875 51.246094 48.226562 49.792969 48.230469 C 48.660156 48.222656 47.722656 48.640625 46.980469 49.480469 C 46.535156 49.023438 45.980469 48.746094 45.3125 48.644531 C 45.855469 48.347656 45.855469 48.070312 45.3125 47.8125 C 47.507812 44.953125 50.355469 43.773438 53.855469 44.269531 Z M 53.855469 44.269531 "/>
<path style=" stroke:none;fill-rule:evenodd;fill:rgb(46.666667%,52.54902%,91.764706%);fill-opacity:1;" d="M 33.019531 45.519531 C 32.890625 46.125 32.679688 46.679688 32.394531 47.1875 C 32.363281 46.515625 32.570312 45.960938 33.019531 45.519531 Z M 33.019531 45.519531 "/>
<path style=" stroke:none;fill-rule:evenodd;fill:rgb(9.411765%,67.45098%,98.039216%);fill-opacity:1;" d="M 49.894531 43.644531 C 48.707031 44.164062 47.527344 44.753906 46.355469 45.417969 C 45.242188 46.144531 44.269531 47.011719 43.4375 48.019531 C 43.296875 47.539062 43.019531 47.46875 42.605469 47.8125 C 42.417969 47.640625 42.351562 47.433594 42.394531 47.1875 C 43.636719 46.425781 44.886719 45.664062 46.144531 44.894531 C 47.269531 44.105469 48.519531 43.6875 49.894531 43.644531 Z M 49.894531 43.644531 "/>
<path style=" stroke:none;fill-rule:evenodd;fill:rgb(44.705882%,22.745098%,67.843137%);fill-opacity:1;" d="M 49.894531 43.644531 C 50.800781 43.609375 51.703125 43.644531 52.605469 43.75 C 53.121094 43.757812 53.535156 43.929688 53.855469 44.269531 C 50.355469 43.773438 47.507812 44.953125 45.3125 47.8125 C 44.519531 48.5625 43.828125 49.394531 43.230469 50.3125 C 42.742188 50.3125 42.257812 50.3125 41.769531 50.3125 C 42.273438 49.519531 42.828125 48.753906 43.4375 48.019531 C 44.269531 47.011719 45.242188 46.144531 46.355469 45.417969 C 47.527344 44.753906 48.707031 44.164062 49.894531 43.644531 Z M 49.894531 43.644531 "/>
<path style=" stroke:none;fill-rule:evenodd;fill:rgb(63.921569%,20.784314%,83.529412%);fill-opacity:1;" d="M 21.769531 43.644531 C 21.941406 44.089844 22.042969 44.574219 22.082031 45.105469 C 22.152344 44.894531 22.222656 44.6875 22.292969 44.480469 C 23.148438 44.722656 24.015625 44.933594 24.894531 45.105469 C 24.835938 45.476562 24.90625 45.824219 25.105469 46.144531 C 25.71875 46.414062 26.203125 46.828125 26.5625 47.394531 C 26.734375 47.1875 26.910156 46.980469 27.082031 46.769531 C 27.15625 47.210938 27.328125 47.28125 27.605469 46.980469 C 27.25 47.691406 27.007812 48.457031 26.875 49.269531 C 26.808594 50.390625 26.703125 51.5 26.5625 52.605469 C 25.632812 53.234375 24.867188 53.058594 24.269531 52.082031 C 23.695312 51.941406 23.140625 51.769531 22.605469 51.5625 C 22.507812 51.207031 22.507812 50.894531 22.605469 50.625 C 22.335938 50.523438 22.058594 50.488281 21.769531 50.519531 C 21.769531 48.230469 21.769531 45.9375 21.769531 43.644531 Z M 21.769531 43.644531 "/>
<path style=" stroke:none;fill-rule:evenodd;fill:rgb(14.901961%,73.333333%,99.215686%);fill-opacity:1;" d="M 35.519531 41.5625 C 35.414062 42.425781 35.34375 43.292969 35.3125 44.167969 C 35.269531 45.027344 35.40625 45.828125 35.730469 46.5625 C 35.875 47.015625 36.152344 47.394531 36.5625 47.707031 C 38.570312 48.214844 40.511719 48.042969 42.394531 47.1875 C 42.351562 47.433594 42.417969 47.640625 42.605469 47.8125 C 43.019531 47.46875 43.296875 47.539062 43.4375 48.019531 C 42.828125 48.753906 42.273438 49.519531 41.769531 50.3125 C 41.632812 50.453125 41.492188 50.589844 41.355469 50.730469 C 41.394531 50.394531 41.289062 50.117188 41.042969 49.894531 C 38.628906 50.074219 36.09375 50.074219 33.4375 49.894531 C 33.4375 49.339844 33.4375 48.785156 33.4375 48.230469 C 33.449219 47.792969 33.238281 47.515625 32.8125 47.394531 C 32.742188 47.535156 32.671875 47.671875 32.605469 47.8125 C 32.414062 48.984375 32.34375 50.164062 32.394531 51.355469 C 32.132812 50.855469 31.992188 50.300781 31.980469 49.6875 C 32.117188 48.859375 32.1875 48.027344 32.1875 47.1875 C 32.257812 47.1875 32.328125 47.1875 32.394531 47.1875 C 32.679688 46.679688 32.890625 46.125 33.019531 45.519531 C 33.007812 45.21875 33.078125 44.9375 33.230469 44.6875 C 33.566406 44.296875 33.980469 44.019531 34.480469 43.855469 C 34.464844 44.417969 34.394531 44.972656 34.269531 45.519531 C 34.546875 45.519531 34.828125 45.519531 35.105469 45.519531 C 35.070312 44.40625 35.105469 43.296875 35.207031 42.1875 C 35.257812 41.929688 35.359375 41.722656 35.519531 41.5625 Z M 35.519531 41.5625 "/>
<path style=" stroke:none;fill-rule:evenodd;fill:rgb(14.901961%,86.666667%,98.431373%);fill-opacity:1;" d="M 68.019531 42.1875 C 68.527344 42.957031 68.734375 43.824219 68.644531 44.792969 C 68.667969 45.6875 68.527344 46.558594 68.230469 47.394531 C 67.539062 48.3125 66.777344 49.183594 65.9375 50 C 64.390625 50.816406 62.863281 51.683594 61.355469 52.605469 C 60.523438 52.710938 59.691406 52.78125 58.855469 52.8125 C 57.894531 51.894531 57.199219 50.785156 56.769531 49.480469 C 56.375 49.242188 56.167969 49.378906 56.144531 49.894531 C 55.714844 49.214844 55.507812 48.453125 55.519531 47.605469 C 55.457031 47.03125 55.523438 46.476562 55.730469 45.9375 C 55.867188 45.867188 56.007812 45.796875 56.144531 45.730469 C 56.3125 46.632812 56.484375 47.535156 56.667969 48.4375 C 56.785156 48.546875 56.921875 48.617188 57.082031 48.644531 C 58.359375 48.414062 59.644531 48.378906 60.9375 48.542969 C 60.5625 48.609375 60.492188 48.746094 60.730469 48.957031 C 59.453125 49.109375 59.417969 49.214844 60.625 49.269531 C 61.851562 48.773438 63.066406 48.773438 64.269531 49.269531 C 64.886719 49.105469 65.511719 49.035156 66.144531 49.0625 C 66.445312 48.152344 66.65625 47.214844 66.769531 46.25 C 66.789062 44.925781 66.304688 43.847656 65.3125 43.019531 C 64.707031 42.300781 64.011719 41.675781 63.230469 41.144531 C 64.300781 40.90625 65.414062 40.871094 66.5625 41.042969 C 67.027344 41.472656 67.511719 41.855469 68.019531 42.1875 Z M 68.019531 42.1875 "/>
<path style=" stroke:none;fill-rule:evenodd;fill:rgb(6.27451%,77.647059%,99.607843%);fill-opacity:1;" d="M 33.4375 48.230469 C 33.4375 48.785156 33.4375 49.339844 33.4375 49.894531 C 36.09375 50.074219 38.628906 50.074219 41.042969 49.894531 C 41.289062 50.117188 41.394531 50.394531 41.355469 50.730469 C 40.589844 51.632812 39.757812 52.464844 38.855469 53.230469 C 38.886719 53.011719 38.851562 52.800781 38.75 52.605469 C 37.164062 52.695312 35.636719 52.765625 34.167969 52.8125 C 34.027344 52.253906 33.785156 51.769531 33.4375 51.355469 C 33.167969 50.292969 33.167969 49.25 33.4375 48.230469 Z M 33.4375 48.230469 "/>
<path style=" stroke:none;fill-rule:evenodd;fill:rgb(50.980392%,87.058824%,99.215686%);fill-opacity:1;" d="M 33.4375 48.230469 C 33.167969 49.25 33.167969 50.292969 33.4375 51.355469 C 33.527344 52.367188 33.945312 53.203125 34.6875 53.855469 C 34.410156 53.855469 34.132812 53.855469 33.855469 53.855469 C 33.5 53.433594 33.152344 53.015625 32.8125 52.605469 C 32.578125 52.226562 32.4375 51.808594 32.394531 51.355469 C 32.34375 50.164062 32.414062 48.984375 32.605469 47.8125 C 32.671875 47.671875 32.742188 47.535156 32.8125 47.394531 C 33.238281 47.515625 33.449219 47.792969 33.4375 48.230469 Z M 33.4375 48.230469 "/>
<path style=" stroke:none;fill-rule:evenodd;fill:rgb(57.254902%,16.862745%,80.392157%);fill-opacity:1;" d="M 54.480469 56.355469 C 54.410156 56.492188 54.339844 56.632812 54.269531 56.769531 C 53.21875 57.503906 52.109375 58.128906 50.9375 58.644531 C 50.566406 58.726562 50.21875 58.867188 49.894531 59.0625 C 49.421875 58.644531 48.9375 58.191406 48.4375 57.707031 C 47.585938 57.25 46.542969 56.902344 45.3125 56.667969 C 44.542969 56.058594 44.195312 55.261719 44.269531 54.269531 C 44.546875 53.582031 44.824219 52.886719 45.105469 52.1875 C 45.683594 51.230469 46.308594 50.324219 46.980469 49.480469 C 47.722656 48.640625 48.660156 48.222656 49.792969 48.230469 C 51.246094 48.226562 52.148438 48.921875 52.5 50.3125 C 52.515625 51.65625 52.65625 52.972656 52.917969 54.269531 C 53.628906 54.851562 54.425781 55.234375 55.3125 55.417969 C 54.84375 55.574219 54.566406 55.886719 54.480469 56.355469 Z M 54.480469 56.355469 "/>
<path style=" stroke:none;fill-rule:evenodd;fill:rgb(65.882353%,90.980392%,98.039216%);fill-opacity:1;" d="M 58.855469 52.8125 C 58.785156 52.8125 58.714844 52.8125 58.644531 52.8125 C 57.148438 52.425781 56.316406 51.453125 56.144531 49.894531 C 56.167969 49.378906 56.375 49.242188 56.769531 49.480469 C 57.199219 50.785156 57.894531 51.894531 58.855469 52.8125 Z M 58.855469 52.8125 "/>
<path style=" stroke:none;fill-rule:evenodd;fill:rgb(9.803922%,81.568627%,99.215686%);fill-opacity:1;" d="M 33.4375 51.355469 C 33.785156 51.769531 34.027344 52.253906 34.167969 52.8125 C 35.636719 52.765625 37.164062 52.695312 38.75 52.605469 C 38.851562 52.800781 38.886719 53.011719 38.855469 53.230469 C 38.195312 53.628906 37.5 53.90625 36.769531 54.0625 C 36.03125 54.128906 35.339844 54.058594 34.6875 53.855469 C 33.945312 53.203125 33.527344 52.367188 33.4375 51.355469 Z M 33.4375 51.355469 "/>
<path style=" stroke:none;fill-rule:evenodd;fill:rgb(52.156863%,24.705882%,68.627451%);fill-opacity:1;" d="M 41.769531 50.3125 C 42.257812 50.3125 42.742188 50.3125 43.230469 50.3125 C 43.15625 51.117188 42.777344 51.742188 42.082031 52.1875 C 41.472656 53.453125 40.605469 54.53125 39.480469 55.417969 C 39.101562 55.574219 38.753906 55.746094 38.4375 55.9375 C 36.390625 56.324219 34.691406 55.765625 33.332031 54.269531 C 32.976562 53.769531 32.804688 53.214844 32.8125 52.605469 C 33.152344 53.015625 33.5 53.433594 33.855469 53.855469 C 34.335938 54.175781 34.890625 54.316406 35.519531 54.269531 C 35.976562 54.269531 36.394531 54.199219 36.769531 54.0625 C 37.5 53.90625 38.195312 53.628906 38.855469 53.230469 C 39.757812 52.464844 40.589844 51.632812 41.355469 50.730469 C 41.492188 50.589844 41.632812 50.453125 41.769531 50.3125 Z M 41.769531 50.3125 "/>
<path style=" stroke:none;fill-rule:evenodd;fill:rgb(68.627451%,30.588235%,87.45098%);fill-opacity:1;" d="M 32.1875 47.1875 C 32.1875 48.027344 32.117188 48.859375 31.980469 49.6875 C 31.992188 50.300781 32.132812 50.855469 32.394531 51.355469 C 32.4375 51.808594 32.578125 52.226562 32.8125 52.605469 C 32.804688 53.214844 32.976562 53.769531 33.332031 54.269531 C 34.691406 55.765625 36.390625 56.324219 38.4375 55.9375 C 39.773438 56.511719 41.230469 56.964844 42.8125 57.292969 C 42.285156 57.761719 42.355469 58.144531 43.019531 58.4375 C 43.039062 59.234375 42.726562 59.859375 42.082031 60.3125 C 41.929688 61.332031 41.410156 62.097656 40.519531 62.605469 C 39.804688 61.917969 39.003906 61.363281 38.125 60.9375 C 38.039062 61.199219 37.863281 61.339844 37.605469 61.355469 C 37.683594 60.847656 37.925781 60.429688 38.332031 60.105469 C 38.472656 59.339844 38.472656 58.578125 38.332031 57.8125 C 38.164062 57.535156 37.921875 57.398438 37.605469 57.394531 C 37.285156 56.800781 36.800781 56.453125 36.144531 56.355469 C 35.566406 56.152344 34.941406 56.082031 34.269531 56.144531 C 34.050781 56.175781 33.84375 56.140625 33.644531 56.042969 C 33.332031 55.683594 32.984375 55.371094 32.605469 55.105469 C 31.328125 54.644531 30.011719 54.230469 28.644531 53.855469 C 28.523438 53.582031 28.316406 53.410156 28.019531 53.332031 C 28.160156 53.265625 28.296875 53.195312 28.4375 53.125 C 27.996094 52.992188 27.578125 52.820312 27.1875 52.605469 C 26.929688 52.695312 26.722656 52.835938 26.5625 53.019531 C 26.5625 52.882812 26.5625 52.742188 26.5625 52.605469 C 26.703125 51.5 26.808594 50.390625 26.875 49.269531 C 27.007812 48.457031 27.25 47.691406 27.605469 46.980469 C 27.683594 46.289062 27.890625 45.664062 28.230469 45.105469 C 28.359375 45.082031 28.460938 45.011719 28.542969 44.894531 C 29.496094 45.125 30.398438 45.472656 31.25 45.9375 C 31.320312 45.867188 31.390625 45.796875 31.457031 45.730469 C 31.597656 46.285156 31.839844 46.773438 32.1875 47.1875 Z M 32.1875 47.1875 "/>
<use xlink:href="#surface17" mask="url(#mask4)"/>
<path style=" stroke:none;fill-rule:evenodd;fill:rgb(40.392157%,67.843137%,90.196078%);fill-opacity:1;" d="M 33.855469 53.855469 C 34.132812 53.855469 34.410156 53.855469 34.6875 53.855469 C 35.339844 54.058594 36.03125 54.128906 36.769531 54.0625 C 36.394531 54.199219 35.976562 54.269531 35.519531 54.269531 C 34.890625 54.316406 34.335938 54.175781 33.855469 53.855469 Z M 33.855469 53.855469 "/>
<path style=" stroke:none;fill-rule:evenodd;fill:rgb(65.490196%,28.235294%,85.882353%);fill-opacity:1;" d="M 45.3125 47.8125 C 45.855469 48.070312 45.855469 48.347656 45.3125 48.644531 C 45.980469 48.746094 46.535156 49.023438 46.980469 49.480469 C 46.308594 50.324219 45.683594 51.230469 45.105469 52.1875 C 44.824219 52.886719 44.546875 53.582031 44.269531 54.269531 C 43.820312 55.628906 43.402344 57.019531 43.019531 58.4375 C 42.355469 58.144531 42.285156 57.761719 42.8125 57.292969 C 41.230469 56.964844 39.773438 56.511719 38.4375 55.9375 C 38.753906 55.746094 39.101562 55.574219 39.480469 55.417969 C 40.605469 54.53125 41.472656 53.453125 42.082031 52.1875 C 42.777344 51.742188 43.15625 51.117188 43.230469 50.3125 C 43.828125 49.394531 44.519531 48.5625 45.3125 47.8125 Z M 45.3125 47.8125 "/>
<use xlink:href="#surface20" mask="url(#mask5)"/>
<use xlink:href="#surface23" mask="url(#mask6)"/>
<path style=" stroke:none;fill-rule:evenodd;fill:rgb(9.411765%,90.196078%,99.607843%);fill-opacity:1;" d="M 34.269531 56.144531 C 34.941406 56.082031 35.566406 56.152344 36.144531 56.355469 C 36.128906 57.125 36.199219 57.890625 36.355469 58.644531 C 36.386719 59.167969 36.179688 59.550781 35.730469 59.792969 C 33.863281 60.25 32.960938 59.523438 33.019531 57.605469 C 33.390625 57.0625 33.808594 56.578125 34.269531 56.144531 Z M 34.269531 56.144531 "/>
<path style=" stroke:none;fill-rule:evenodd;fill:rgb(75.294118%,34.117647%,89.803922%);fill-opacity:1;" d="M 34.269531 56.144531 C 33.808594 56.578125 33.390625 57.0625 33.019531 57.605469 C 32.6875 58.625 32.828125 59.597656 33.4375 60.519531 C 33.808594 61.578125 34.574219 62.0625 35.730469 61.980469 C 36.414062 61.925781 37.039062 61.71875 37.605469 61.355469 C 37.863281 61.339844 38.039062 61.199219 38.125 60.9375 C 39.003906 61.363281 39.804688 61.917969 40.519531 62.605469 C 39.960938 63.164062 39.335938 63.648438 38.644531 64.0625 C 35.855469 65.03125 33.148438 64.859375 30.519531 63.542969 C 29.648438 62.738281 28.78125 61.9375 27.917969 61.144531 C 27.582031 59.867188 27.167969 58.617188 26.667969 57.394531 C 26.5625 55.9375 26.527344 54.480469 26.5625 53.019531 C 26.722656 52.835938 26.929688 52.695312 27.1875 52.605469 C 27.578125 52.820312 27.996094 52.992188 28.4375 53.125 C 28.296875 53.195312 28.160156 53.265625 28.019531 53.332031 C 28.316406 53.410156 28.523438 53.582031 28.644531 53.855469 C 30.011719 54.230469 31.328125 54.644531 32.605469 55.105469 C 32.984375 55.371094 33.332031 55.683594 33.644531 56.042969 C 33.84375 56.140625 34.050781 56.175781 34.269531 56.144531 Z M 34.269531 56.144531 "/>
<use xlink:href="#surface26" mask="url(#mask7)"/>
<path style=" stroke:none;fill-rule:evenodd;fill:rgb(73.72549%,23.529412%,87.058824%);fill-opacity:1;" d="M 21.769531 50.519531 C 22.058594 50.488281 22.335938 50.523438 22.605469 50.625 C 22.507812 50.894531 22.507812 51.207031 22.605469 51.5625 C 23.140625 51.769531 23.695312 51.941406 24.269531 52.082031 C 24.867188 53.058594 25.632812 53.234375 26.5625 52.605469 C 26.5625 52.742188 26.5625 52.882812 26.5625 53.019531 C 26.527344 54.480469 26.5625 55.9375 26.667969 57.394531 C 27.167969 58.617188 27.582031 59.867188 27.917969 61.144531 C 28.78125 61.9375 29.648438 62.738281 30.519531 63.542969 C 33.148438 64.859375 35.855469 65.03125 38.644531 64.0625 C 38.277344 64.679688 38.417969 65.097656 39.0625 65.3125 C 38.921875 65.453125 38.785156 65.589844 38.644531 65.730469 C 38.328125 65.714844 38.121094 65.851562 38.019531 66.144531 C 37.605469 66.355469 37.1875 66.5625 36.769531 66.769531 C 36.207031 66.804688 35.859375 67.082031 35.730469 67.605469 C 35.203125 67.710938 34.71875 67.917969 34.269531 68.230469 C 33.695312 68.304688 33.277344 68.585938 33.019531 69.0625 C 32.429688 69.183594 31.945312 69.460938 31.5625 69.894531 C 30.59375 69.792969 29.621094 69.722656 28.644531 69.6875 C 28.675781 69.46875 28.640625 69.261719 28.542969 69.0625 C 28.472656 69.132812 28.402344 69.203125 28.332031 69.269531 C 28.253906 69.078125 28.152344 68.90625 28.019531 68.75 C 27.269531 68.71875 26.578125 68.507812 25.9375 68.125 C 26.351562 68 26.417969 67.789062 26.144531 67.5 C 25.785156 67.363281 25.4375 67.398438 25.105469 67.605469 C 24.660156 67.273438 24.3125 66.855469 24.0625 66.355469 C 23.269531 66.539062 22.578125 66.328125 21.980469 65.730469 C 21.769531 61.007812 21.703125 56.285156 21.769531 51.5625 C 21.769531 51.214844 21.769531 50.867188 21.769531 50.519531 Z M 21.769531 50.519531 "/>
<path style=" stroke:none;fill-rule:evenodd;fill:rgb(64.313725%,20%,82.745098%);fill-opacity:1;" d="M 44.269531 54.269531 C 44.195312 55.261719 44.542969 56.058594 45.3125 56.667969 C 46.542969 56.902344 47.585938 57.25 48.4375 57.707031 C 48.9375 58.191406 49.421875 58.644531 49.894531 59.0625 C 49.894531 59.132812 49.894531 59.203125 49.894531 59.269531 C 49.375 59.496094 48.886719 59.773438 48.4375 60.105469 C 47.789062 60.152344 47.300781 60.429688 46.980469 60.9375 C 46.726562 61.027344 46.519531 61.167969 46.355469 61.355469 C 46.011719 61.386719 45.730469 61.527344 45.519531 61.769531 C 44.117188 62.71875 42.660156 63.621094 41.144531 64.480469 C 40.4375 64.765625 39.742188 65.042969 39.0625 65.3125 C 38.417969 65.097656 38.277344 64.679688 38.644531 64.0625 C 39.335938 63.648438 39.960938 63.164062 40.519531 62.605469 C 41.410156 62.097656 41.929688 61.332031 42.082031 60.3125 C 42.726562 59.859375 43.039062 59.234375 43.019531 58.4375 C 43.402344 57.019531 43.820312 55.628906 44.269531 54.269531 Z M 44.269531 54.269531 "/>
<path style=" stroke:none;fill-rule:evenodd;fill:rgb(12.156863%,74.509804%,98.431373%);fill-opacity:1;" d="M 36.144531 56.355469 C 36.800781 56.453125 37.285156 56.800781 37.605469 57.394531 C 38.15625 58.890625 37.808594 60.105469 36.5625 61.042969 C 35.386719 61.574219 34.34375 61.398438 33.4375 60.519531 C 32.828125 59.597656 32.6875 58.625 33.019531 57.605469 C 32.960938 59.523438 33.863281 60.25 35.730469 59.792969 C 36.179688 59.550781 36.386719 59.167969 36.355469 58.644531 C 36.199219 57.890625 36.128906 57.125 36.144531 56.355469 Z M 36.144531 56.355469 "/>
<use xlink:href="#surface29" mask="url(#mask8)"/>
<path style=" stroke:none;fill-rule:evenodd;fill:rgb(57.254902%,29.803922%,72.54902%);fill-opacity:1;" d="M 37.605469 57.394531 C 37.921875 57.398438 38.164062 57.535156 38.332031 57.8125 C 38.472656 58.578125 38.472656 59.339844 38.332031 60.105469 C 37.925781 60.429688 37.683594 60.847656 37.605469 61.355469 C 37.039062 61.71875 36.414062 61.925781 35.730469 61.980469 C 34.574219 62.0625 33.808594 61.578125 33.4375 60.519531 C 34.34375 61.398438 35.386719 61.574219 36.5625 61.042969 C 37.808594 60.105469 38.15625 58.890625 37.605469 57.394531 Z M 37.605469 57.394531 "/>
<use xlink:href="#surface32" mask="url(#mask9)"/>
<use xlink:href="#surface35" mask="url(#mask10)"/>
<path style=" stroke:none;fill-rule:evenodd;fill:rgb(77.647059%,26.666667%,87.843137%);fill-opacity:1;" d="M 21.5625 51.5625 C 21.632812 51.5625 21.703125 51.5625 21.769531 51.5625 C 21.703125 56.285156 21.769531 61.007812 21.980469 65.730469 C 22.578125 66.328125 23.269531 66.539062 24.0625 66.355469 C 24.3125 66.855469 24.660156 67.273438 25.105469 67.605469 C 25.4375 67.398438 25.785156 67.363281 26.144531 67.5 C 26.417969 67.789062 26.351562 68 25.9375 68.125 C 26.578125 68.507812 27.269531 68.71875 28.019531 68.75 C 28.152344 68.90625 28.253906 69.078125 28.332031 69.269531 C 28.402344 69.203125 28.472656 69.132812 28.542969 69.0625 C 28.640625 69.261719 28.675781 69.46875 28.644531 69.6875 C 29.621094 69.722656 30.59375 69.792969 31.5625 69.894531 C 30.8125 70.363281 29.980469 70.640625 29.0625 70.730469 C 27.894531 70.917969 26.714844 70.988281 25.519531 70.9375 C 25.144531 70.828125 24.796875 70.6875 24.480469 70.519531 C 24.253906 70.085938 23.90625 69.808594 23.4375 69.6875 C 22.917969 69.207031 22.503906 68.652344 22.1875 68.019531 C 22.132812 67.441406 21.925781 66.957031 21.5625 66.5625 C 21.5625 66.421875 21.5625 66.285156 21.5625 66.144531 C 21.5625 61.285156 21.5625 56.421875 21.5625 51.5625 Z M 21.5625 51.5625 "/>
<use xlink:href="#surface38" mask="url(#mask11)"/>
<use xlink:href="#surface41" mask="url(#mask12)"/>
<use xlink:href="#surface44" mask="url(#mask13)"/>
<use xlink:href="#surface47" mask="url(#mask14)"/>
<use xlink:href="#surface50" mask="url(#mask15)"/>
</g>
</svg>
